<?xml version="1.0" standalone="no"?>
<!DOCTYPE svg PUBLIC "-//W3C//DTD SVG 20010904//EN"
 "http://www.w3.org/TR/2001/REC-SVG-20010904/DTD/svg10.dtd">
<svg version="1.0" xmlns="http://www.w3.org/2000/svg"
 width="500.000000pt" height="500.000000pt" viewBox="0 0 500.000000 500.000000"
 preserveAspectRatio="xMidYMid meet">

<g transform="translate(0.000000,500.000000) scale(0.100000,-0.100000)"
fill="#000000" stroke="none">
<path d="M3435 4234 c-157 -33 -366 -165 -489 -310 -252 -296 -392 -617 -791
-1824 -48 -146 -90 -268 -94 -272 -3 -4 -48 118 -100 270 -51 152 -156 462
-233 687 -218 639 -227 667 -228 710 0 22 7 51 16 64 19 26 71 51 109 51 23 0
26 4 23 27 l-3 26 -320 0 -320 0 -3 -26 c-3 -21 1 -27 15 -27 66 0 148 -52
180 -114 25 -48 247 -676 429 -1211 13 -38 84 -248 157 -465 l134 -395 43 0
43 0 49 135 c28 74 134 383 238 685 268 785 346 990 478 1249 186 368 379 549
623 587 141 22 313 -24 439 -117 l59 -43 34 57 c19 31 42 72 51 90 17 33 17
33 -14 62 -106 99 -333 144 -525 104z"/>
<path d="M2985 3501 c-3 -5 -28 -69 -56 -143 -121 -320 -229 -605 -339 -898
-146 -387 -217 -556 -327 -772 -113 -224 -187 -333 -302 -449 -143 -143 -258
-199 -411 -199 -128 0 -244 40 -360 126 -33 24 -64 44 -68 44 -5 0 -30 -40
-55 -89 l-47 -89 35 -31 c130 -114 363 -157 545 -102 217 66 421 232 583 474
100 150 237 424 332 666 l42 106 286 3 286 2 10 -37 c6 -21 35 -171 66 -333
66 -347 68 -396 17 -441 -18 -16 -43 -29 -56 -29 -58 0 -86 -12 -86 -36 l0
-24 343 2 c334 3 342 3 342 23 0 15 -10 23 -46 31 -83 21 -121 48 -152 110
-21 42 -58 189 -106 429 -36 180 -112 550 -276 1344 -31 150 -60 284 -65 297
-9 22 -16 24 -69 24 -33 0 -62 -4 -66 -9z m-7 -576 c23 -110 62 -306 87 -435
25 -129 48 -243 51 -252 5 -17 -12 -18 -260 -18 -146 0 -266 3 -266 6 0 4 34
99 76 213 154 415 206 558 231 629 14 41 29 70 33 65 4 -4 25 -98 48 -208z"/>
</g>
</svg>
